<svg width="600" height="140" viewBox="0 0 600 140" fill="none" xmlns="http://www.w3.org/2000/svg">
<path fill-rule="evenodd" clip-rule="evenodd" d="M465.985 127.117C466.808 127.117 467.745 127.117 468.818 127.117C469.534 127.117 470.828 127.117 471.33 127.117L470.548 128.413C471.272 128.63 471.959 128.956 472.61 129.39C473.261 129.86 473.786 130.421 474.184 131.072C474.618 131.723 474.835 132.501 474.835 133.405C474.835 134.744 474.582 135.883 474.075 136.824C473.569 137.8 472.719 138.542 471.525 139.048C470.331 139.555 468.703 139.808 466.642 139.808C465.846 139.808 465.122 139.754 464.471 139.645C463.856 139.537 463.295 139.41 462.789 139.265V134.816C463.295 134.961 463.91 135.087 464.634 135.196C465.394 135.304 466.045 135.359 466.587 135.359C467.094 135.359 467.528 135.232 467.89 134.979C468.287 134.762 468.486 134.346 468.486 133.731C468.486 133.08 468.161 132.501 467.51 131.995C466.859 131.488 465.719 131.108 464.091 130.855L465.985 127.117Z" fill="#2B6198"/>
<path d="M241.521 127.174H230.796L229.552 123.652H218.616L217.345 127.174H211.387L220.284 102.442C220.743 101.189 221.52 100.182 222.614 99.4232C223.762 98.6465 224.997 98.2581 226.321 98.2581C227.663 98.2581 228.925 98.6376 230.108 99.3967C231.291 100.121 232.094 101.091 232.518 102.309L241.521 127.174ZM227.46 117.853L224.071 108.506L220.681 117.853H227.46Z" fill="#2B6198"/>
<path d="M281.937 112.716C281.937 116.706 280.472 120.113 277.542 122.937C274.647 125.762 271.134 127.174 267.003 127.174C262.907 127.174 259.394 125.762 256.464 122.937C253.551 120.113 252.095 116.706 252.095 112.716V98.2581H263.137V113.087C263.137 118.63 264.425 121.401 267.003 121.401C269.598 121.401 270.895 118.63 270.895 113.087V98.2581H281.937V112.716Z" fill="#2B6198"/>
<path d="M313.96 127.174H304.454C303.112 127.174 301.876 126.874 300.747 126.274C299.317 125.568 298.602 124.544 298.602 123.202V104.534C298.602 104.11 298.266 103.898 297.595 103.898H294.127V98.0727H295.292L308.532 90.7114V98.0727H313.96V103.898H309.538C308.867 103.898 308.532 104.11 308.532 104.534V120.766C308.532 121.154 308.867 121.348 309.538 121.348H313.96V127.174Z" fill="#2B6198"/>
<path d="M355.912 112.716C355.912 116.706 354.447 120.113 351.517 122.937C348.622 125.762 345.118 127.174 341.004 127.174C336.909 127.174 333.396 125.762 330.465 122.937C327.553 120.113 326.096 116.706 326.096 112.716C326.096 108.762 327.553 105.363 330.465 102.521C333.413 99.6792 336.926 98.2581 341.004 98.2581C345.082 98.2581 348.586 99.6792 351.517 102.521C354.447 105.346 355.912 108.744 355.912 112.716ZM344.897 113.087V112.584C344.897 111.966 344.888 111.445 344.87 111.021C344.87 110.598 344.862 110.271 344.844 110.042C344.544 106.034 343.264 104.031 341.004 104.031C338.409 104.031 337.112 106.802 337.112 112.345V113.087C337.112 118.63 338.409 121.401 341.004 121.401C343.599 121.401 344.897 118.63 344.897 113.087Z" fill="#2B6198"/>
<path d="M399.004 127.174H392.304V117.588L389.1 123.414C387.706 125.921 386.028 127.174 384.069 127.174C382.109 127.174 380.441 125.921 379.064 123.414L375.86 117.588V127.174H369.161V103.528C369.161 102.08 369.664 100.835 370.67 99.7939C371.694 98.7347 372.956 98.2051 374.457 98.2051C376.61 98.2051 378.235 99.2908 379.329 101.462L384.069 111.048L388.835 101.462C389.912 99.2908 391.51 98.2051 393.628 98.2051C395.129 98.2051 396.4 98.7347 397.441 99.7939C398.483 100.835 399.004 102.08 399.004 103.528V127.174Z" fill="#2B6198"/>
<path d="M439.791 127.174H429.067L427.822 123.652H416.886L415.615 127.174H409.657L418.554 102.442C419.013 101.189 419.79 100.182 420.884 99.4232C422.032 98.6465 423.268 98.2581 424.592 98.2581C425.933 98.2581 427.195 98.6376 428.378 99.3967C429.561 100.121 430.364 101.091 430.788 102.309L439.791 127.174ZM425.73 117.853L422.341 108.506L418.951 117.853H425.73Z" fill="#2B6198"/>
<path d="M475.441 127.174H471.321H464.161C460.065 127.174 456.552 125.762 453.622 122.937C450.709 120.113 449.253 116.706 449.253 112.716C449.253 108.762 450.709 105.363 453.622 102.521C456.57 99.6792 460.083 98.2581 464.161 98.2581H475.441V104.031H464.161C461.566 104.031 460.268 106.838 460.268 112.451V112.981C460.268 118.595 461.566 121.401 464.161 121.401H475.441V127.174Z" fill="#2B6198"/>
<path d="M512.204 94.2332C510.615 95.8926 508.655 96.7223 506.325 96.7223C505.478 96.7223 504.516 96.3516 503.439 95.6101C502.38 94.8687 501.532 94.498 500.897 94.498C498.902 94.498 496.943 95.4512 495.018 97.3578V91.6911C496.695 90.0317 498.655 89.202 500.897 89.202C501.744 89.202 502.697 89.5727 503.757 90.3142C504.816 91.0556 505.672 91.4263 506.325 91.4263C508.373 91.4263 510.332 90.4642 512.204 88.54V94.2332ZM518.532 112.61C518.532 116.617 517.067 120.051 514.137 122.911C511.206 125.753 507.702 127.174 503.624 127.174C499.546 127.174 496.033 125.753 493.085 122.911C490.173 120.051 488.716 116.617 488.716 112.61C488.716 108.603 490.173 105.169 493.085 102.309C496.016 99.4497 499.529 98.0198 503.624 98.0198C507.72 98.0198 511.224 99.4497 514.137 102.309C517.067 105.169 518.532 108.603 518.532 112.61ZM507.517 112.981V112.478C507.517 111.86 507.508 111.348 507.49 110.942C507.49 110.518 507.481 110.192 507.464 109.962C507.164 105.884 505.884 103.845 503.624 103.845C501.029 103.845 499.732 106.652 499.732 112.266V112.981C499.732 118.559 501.029 121.348 503.624 121.348C506.219 121.348 507.517 118.559 507.517 112.981Z" fill="#2B6198"/>
<path d="M554.395 127.174H537.659C536.353 127.174 535.117 126.891 533.952 126.327C532.505 125.568 531.781 124.544 531.781 123.255V102.177C531.781 100.888 532.505 99.8645 533.952 99.1054C535.117 98.5405 536.353 98.2581 537.659 98.2581H554.395V104.031H542.717C542.064 104.031 541.737 104.243 541.737 104.666V109.83H554.395V115.602H541.737V120.766C541.737 121.19 542.064 121.401 542.717 121.401H554.395V127.174Z" fill="#2B6198"/>
<path d="M591.369 118.674C591.369 120.863 590.672 122.796 589.277 124.473C587.794 126.274 585.923 127.174 583.663 127.174H568.755V121.401H579.691C580.38 121.401 580.724 120.987 580.724 120.157C580.724 119.768 580.397 119.336 579.744 118.859C578.049 117.8 575.56 116.158 572.277 113.934C569.929 112.222 568.755 109.918 568.755 107.023C568.755 104.781 569.417 102.795 570.741 101.065C572.224 99.1937 574.122 98.2581 576.434 98.2581H591.369V104.031H580.433C579.762 104.031 579.426 104.428 579.426 105.222C579.426 105.575 579.682 105.937 580.194 106.308L586.152 110.598C589.63 113.087 591.369 115.779 591.369 118.674Z" fill="#2B6198"/>
<path d="M278.872 85.5614H264.238V62.513L256.658 76.8937C253.608 82.6722 249.89 85.5614 245.504 85.5614C241.119 85.5614 237.401 82.6722 234.35 76.8937L226.771 62.513V85.5614H212.137V30.5012C212.137 27.1852 213.265 24.3123 215.521 21.8827C217.777 19.4531 220.558 18.2383 223.863 18.2383C228.693 18.2383 232.3 20.7336 234.684 25.7241L245.504 48.4771L256.325 25.7241C258.708 20.7336 262.267 18.2383 267.002 18.2383C270.307 18.2383 273.104 19.4531 275.392 21.8827C277.712 24.2795 278.872 27.1523 278.872 30.5012V85.5614Z" fill="#2B6198"/>
<path d="M346.224 85.5614H322.533L319.721 77.3369H294.791L291.978 85.5614H278.917L298.89 27.9896C299.844 25.1331 301.56 22.8184 304.038 21.0455C306.549 19.2397 309.329 18.3368 312.38 18.3368C315.304 18.3368 318.084 19.2068 320.722 20.947C323.36 22.6871 325.155 24.9197 326.109 27.6448L346.224 85.5614ZM315.145 64.2367L307.232 41.533L299.367 64.2367H315.145Z" fill="#2B6198"/>
<path d="M416.008 85.5614H388.17L370.676 64.5322V85.5614H346.27V18.3368H375.586C383.88 18.3368 390.919 19.568 396.703 22.0304C404.838 25.5107 408.906 30.9773 408.906 38.4303C408.906 47.5578 403.138 53.5989 391.602 56.5539L416.008 85.5614ZM384.5 38.4303C384.5 36.329 383.594 34.6381 381.783 33.3577C379.971 32.0772 377.906 31.437 375.586 31.437H370.676V45.3744H375.586C377.906 45.3744 379.971 44.7342 381.783 43.4537C383.594 42.1732 384.5 40.4988 384.5 38.4303Z" fill="#2B6198"/>
<path d="M484.981 85.5614H457.811L441.842 64.7292V85.5614H417.436V18.3368H441.842V43.6014L459.336 18.3368H480.834L458.526 51.038L484.981 85.5614Z" fill="#2B6198"/>
<path d="M536.937 85.5614H499.518C496.563 85.5614 493.83 84.8884 491.319 83.5422C488.11 81.8678 486.505 79.5367 486.505 76.5489V27.3001C486.505 24.3451 488.11 22.0304 491.319 20.356C493.83 19.0098 496.563 18.3368 499.518 18.3368H536.937V31.437H510.911C509.29 31.437 508.48 31.9951 508.48 33.1114V45.3744H536.937V58.4746H508.48V70.7868C508.48 71.9031 509.29 72.4613 510.911 72.4613H536.937V85.5614Z" fill="#2B6198"/>
<path d="M600 31.437H584.127C582.506 31.437 581.696 31.9951 581.696 33.1114V85.5614H559.721V33.1114C559.721 31.9951 558.91 31.437 557.29 31.437H541.512V18.3368H600V31.437Z" fill="#2B6198"/>
<path fill-rule="evenodd" clip-rule="evenodd" d="M0 93.6325L62.2996 0L92.0178 44.6726L29.7274 138.302L0 93.6325ZM130.304 93.6325L160.032 48.963L189.759 93.6325L160.032 138.302L130.304 93.6325ZM65.1599 93.6325L127.466 0L157.178 44.6726L94.8873 138.302L65.1599 93.6325Z" fill="#2B6198"/>
</svg>
